<?xml version="1.0" encoding="UTF-8"?>
<svg width="700pt" height="700pt" version="1.1" viewBox="0 0 700 700" xmlns="http://www.w3.org/2000/svg">
 <g>
  <path d="m484.17 280c0.097656-42.852-20.285-83.168-54.852-108.49-34.57-25.32-79.156-32.598-119.98-19.582-40.828 13.02-72.973 44.762-86.504 85.422-0.33984 0.75781-0.63672 1.5391-0.88672 2.332-8.2422 26.199-8.2422 54.301 0 80.5 0.25 0.79687 0.54688 1.5742 0.88672 2.332 13.527 40.645 45.652 72.379 86.457 85.406 40.805 13.027 85.379 5.7773 119.95-19.512 34.574-25.289 54.984-65.574 54.93-108.41zm-233.33 0h-0.003907c0.066407-5.875 0.66016-11.73 1.7734-17.5h79.895v35h-79.895c-1.1133-5.7695-1.707-11.625-1.7734-17.5zm81.668-97.395-0.003906 44.895h-66.289c14.789-23.633 38.855-39.934 66.289-44.895zm-66.293 149.89h66.289v44.895c-27.434-4.9609-51.5-21.262-66.289-44.895z"/>
  <path d="m367.5 93.332v-46.664c0-6.2539-3.3359-12.031-8.75-15.156s-12.086-3.125-17.5 0-8.75 8.9023-8.75 15.156v46.664c0 6.2539 3.3359 12.031 8.75 15.156s12.086 3.125 17.5 0 8.75-8.9023 8.75-15.156z"/>
  <path d="m527.33 102.67c-3.2812-3.2852-7.7344-5.1328-12.379-5.1328-4.6406 0-9.0938 1.8477-12.375 5.1328l-32.949 32.969c-4.4219 4.4219-6.1484 10.867-4.5312 16.91 1.6211 6.0391 6.3398 10.758 12.379 12.379 6.043 1.6172 12.488-0.10938 16.91-4.5312l32.945-33.02c3.2695-3.2773 5.1094-7.7227 5.1094-12.352 0-4.6328-1.8398-9.0781-5.1094-12.355z"/>
  <path d="m583.33 262.5h-46.664c-6.2539 0-12.031 3.3359-15.156 8.75s-3.125 12.086 0 17.5 8.9023 8.75 15.156 8.75h46.668-0.003907c6.2539 0 12.031-3.3359 15.156-8.75s3.125-12.086 0-17.5-8.9023-8.75-15.156-8.75z"/>
  <path d="m502.62 457.33c4.4844 4.0117 10.723 5.4375 16.504 3.7695 5.7852-1.6641 10.309-6.1875 11.973-11.973 1.668-5.7812 0.24219-12.02-3.7695-16.504l-32.992-33.016v-0.003906c-4.4219-4.4219-10.867-6.1484-16.91-4.5312-6.0391 1.6211-10.758 6.3398-12.379 12.379-1.6172 6.043 0.10938 12.488 4.5312 16.91z"/>
  <path d="m332.5 466.67v46.668-0.003907c0 6.2539 3.3359 12.031 8.75 15.156s12.086 3.125 17.5 0 8.75-8.9023 8.75-15.156v-46.664c0-6.2539-3.3359-12.031-8.75-15.156s-12.086-3.125-17.5 0-8.75 8.9023-8.75 15.156z"/>
  <path d="m172.67 457.33c3.2852 3.2734 7.7383 5.1133 12.379 5.1133 4.6367 0 9.0898-1.8398 12.375-5.1133l32.992-33.016h0.003907c4.293-4.4414 5.9258-10.82 4.2969-16.781-1.6328-5.9609-6.2852-10.621-12.246-12.258-5.957-1.6367-12.34-0.007813-16.785 4.2812l-33.016 33.066c-3.2695 3.2773-5.1094 7.7227-5.1094 12.352 0 4.6328 1.8398 9.0781 5.1094 12.355z"/>
  <path d="m99.168 280c0 4.6406 1.8438 9.0938 5.125 12.375s7.7305 5.125 12.375 5.125h46.664c6.2539 0 12.031-3.3359 15.156-8.75s3.125-12.086 0-17.5-8.9023-8.75-15.156-8.75h-46.664c-4.6445 0-9.0938 1.8438-12.375 5.125s-5.125 7.7344-5.125 12.375z"/>
  <path d="m230.37 160.39c3.2852-3.2852 5.1289-7.7344 5.1289-12.379s-1.8438-9.0977-5.1289-12.379l-32.996-32.969c-4.4844-4.0117-10.723-5.4375-16.504-3.7695-5.7852 1.6641-10.309 6.1875-11.973 11.973-1.668 5.7812-0.24219 12.02 3.7695 16.504l32.969 33.02c3.2852 3.2695 7.7305 5.1055 12.367 5.1055 4.6367 0 9.082-1.8359 12.367-5.1055z"/>
 </g>
</svg>
